<svg width="100" height="56" viewBox="0 0 100 56" fill="none" xmlns="http://www.w3.org/2000/svg">
<path d="M19.5217 8.36645C19.5217 9.90588 18.2723 11.1553 16.7329 11.1553H2.78882C1.24939 11.1553 0 9.90588 0 8.36645C0 6.82703 1.24939 5.57764 2.78882 5.57764H16.7329C18.2723 5.57764 19.5217 6.82703 19.5217 8.36645ZM13.9441 22.3105C13.9441 23.85 12.6947 25.0993 11.1553 25.0993H2.78882C1.24939 25.0993 0 23.85 0 22.3105C0 20.7711 1.24939 19.5217 2.78882 19.5217H11.1553C12.6947 19.5217 13.9441 20.7711 13.9441 22.3105ZM8.36645 36.2546C8.36645 37.7968 7.11706 39.0434 5.57763 39.0434H2.78882C1.24939 39.0434 0 37.7968 0 36.2546C0 34.7124 1.24939 33.4658 2.78882 33.4658H5.57763C7.11706 33.4658 8.36645 34.7124 8.36645 36.2546Z" fill="#D1D1DB"/>
<path d="M90.0815 44.6211C88.3357 50.7816 81.9242 55.7763 75.7637 55.7763H19.9874C13.8269 55.7763 10.2489 50.7816 11.9947 44.6211L21.471 11.1553C23.2168 4.99477 29.6255 0 35.786 0H91.5624C97.7229 0 101.304 4.99477 99.5579 11.1553L90.0815 44.6211Z" fill="#F2F2F7"/>
<path d="M48.3469 24.0843L12.2262 50.0565C12.1314 50.1346 12.0756 50.2322 11.9891 50.3103C12.4883 51.9 13.4337 53.2191 14.7556 54.17C14.8532 54.1059 14.9592 54.078 15.054 54.0027L51.1748 28.0277C52.572 26.9373 53.074 25.1747 52.2931 24.0843C51.5094 22.9939 49.7469 22.9939 48.3469 24.0843ZM86.8605 50.3103C86.8186 50.2322 86.8158 50.1346 86.7656 50.0593L65.3643 24.0843C64.5806 22.9939 62.8181 22.9939 61.4153 24.0843C60.0181 25.1747 59.5189 26.9373 60.2998 28.0277L81.7067 54.0027C81.7569 54.0752 81.849 54.1059 81.9075 54.17C83.7649 53.2218 85.4605 51.9 86.8605 50.3103Z" fill="#D1D1DB"/>
<path d="M99.5579 11.1553C101.304 4.99477 97.7228 0 91.5623 0H35.786C29.6255 0 23.2168 4.99477 21.471 11.1553L21.4125 11.3616L45.9708 34.9327C50.5193 39.3502 56.5348 39.0462 61.9368 35.9674L98.8244 13.7572L99.5579 11.1553Z" fill="#D1D1DB"/>
<path d="M91.5624 0H35.7861C31.3853 0 26.8925 2.5685 24.0256 6.26926L49.7302 30.7941C51.819 32.7993 56.5181 32.8271 59.9261 30.7941L99.7894 6.34177C99.0476 2.60197 95.991 0 91.5624 0Z" fill="#F2F2F7"/>
</svg>
