<svg width="20" height="20" viewBox="0 0 20 20" fill="grey" xmlns="http://www.w3.org/2000/svg">
    <path fill-rule="evenodd" clip-rule="evenodd" d="M-4.60523e-07 9.875C1.57273 5.85083 5.45455 3 10 3C11.2011 3 12.3558 3.19904 13.4338 3.56618L11.4648 5.53517C11.0051 5.37731 10.5124 5.29167 10 5.29167C7.49091 5.29167 5.45455 7.345 5.45454 9.875C5.45454 10.3783 5.53514 10.8628 5.68402 11.316L2.93071 14.0693C1.64892 12.9368 0.635781 11.5018 -4.60523e-07 9.875ZM4.56675 15.2617C6.16047 16.2075 8.01709 16.75 10 16.75C14.5455 16.75 18.4273 13.8992 20 9.875C19.105 7.58486 17.4621 5.67473 15.3746 4.45379L13.2038 6.62466C14.0323 7.45502 14.5455 8.60495 14.5455 9.875C14.5455 12.405 12.5091 14.4583 10 14.4583C8.72689 14.4583 7.57548 13.9297 6.75005 13.0784L4.56675 15.2617ZM8.03951 11.7889C8.53492 12.3048 9.22954 12.625 10 12.625C11.5091 12.625 12.7273 11.3967 12.7273 9.875C12.7273 9.10636 12.4164 8.41256 11.9143 7.91413L8.03951 11.7889ZM9.87204 7.12796C8.47258 7.19275 7.35232 8.31514 7.27679 9.72321L9.87204 7.12796Z"/>
    <rect x="2.41421" y="17.4142" width="22" height="2" transform="rotate(-45 2.41421 17.4142)" />
</svg>
