<svg width="24" height="24" viewBox="0 0 24 24" fill="none" xmlns="http://www.w3.org/2000/svg">
<g clip-path="url(#clip0_1312_1265)">
<path d="M23.9998 12.2755C23.9998 11.4598 23.9323 10.6397 23.7884 9.83716H12.2405V14.4581H18.8534C18.579 15.9485 17.6973 17.2669 16.4062 18.1047V21.103H20.3514C22.6682 19.013 23.9998 15.9264 23.9998 12.2755Z" fill="#4285F4"/>
<path d="M12.2406 24C15.5426 24 18.3272 22.9373 20.3561 21.1031L16.4108 18.1047C15.3132 18.8367 13.8961 19.2511 12.2451 19.2511C9.05113 19.2511 6.34297 17.1391 5.37128 14.2994H1.30005V17.3904C3.3784 21.4426 7.61158 24 12.2406 24Z" fill="#34A853"/>
<path d="M5.36688 14.2994C4.85404 12.8091 4.85404 11.1953 5.36688 9.7049V6.61395H1.30015C-0.436312 10.0047 -0.436312 13.9996 1.30015 17.3904L5.36688 14.2994Z" fill="#FBBC04"/>
<path d="M12.2406 4.74881C13.9861 4.72235 15.6731 5.36611 16.9372 6.54781L20.4326 3.12176C18.2193 1.08465 15.2817 -0.0353205 12.2406 -4.58262e-05C7.61158 -4.58262e-05 3.3784 2.55737 1.30005 6.61395L5.36678 9.7049C6.33398 6.86088 9.04663 4.74881 12.2406 4.74881Z" fill="#EA4335"/>
</g>
<defs>
<clipPath id="clip0_1312_1265">
<rect width="24" height="24" fill="white"/>
</clipPath>
</defs>
</svg>
