<svg width="20" height="20" viewBox="0 0 20 20" fill="grey" xmlns="http://www.w3.org/2000/svg">
    <path d="M10 3.75C5.45455 3.75 1.57273 6.60083 0 10.625C1.57273 14.6492 5.45455 17.5 10 17.5C14.5455 17.5 18.4273 14.6492 20 10.625C18.4273 6.60083 14.5455 3.75 10 3.75ZM10 15.2083C7.49091 15.2083 5.45455 13.155 5.45455 10.625C5.45455 8.095 7.49091 6.04167 10 6.04167C12.5091 6.04167 14.5455 8.095 14.5455 10.625C14.5455 13.155 12.5091 15.2083 10 15.2083ZM10 7.875C8.49091 7.875 7.27273 9.10333 7.27273 10.625C7.27273 12.1467 8.49091 13.375 10 13.375C11.5091 13.375 12.7273 12.1467 12.7273 10.625C12.7273 9.10333 11.5091 7.875 10 7.875Z"/>
</svg>
